<?xml version="1.0" standalone="no"?>
<!DOCTYPE svg PUBLIC "-//W3C//DTD SVG 20010904//EN"
 "http://www.w3.org/TR/2001/REC-SVG-20010904/DTD/svg10.dtd">
<svg version="1.0" xmlns="http://www.w3.org/2000/svg"
 width="1024.000000pt" height="1024.000000pt" viewBox="0 0 1024.000000 1024.000000"
 preserveAspectRatio="xMidYMid meet">
<metadata>
Created by potrace 1.14, written by Peter Selinger 2001-2017
</metadata>
<g transform="translate(0.000000,1024.000000) scale(0.100000,-0.100000)"
fill="#000000" stroke="none">
<path d="M4762 9655 c-17 -25 -38 -45 -47 -45 -8 0 -15 -4 -15 -9 0 -6 -9 -8
-20 -6 -11 2 -18 0 -15 -5 3 -4 -1 -11 -7 -13 -10 -4 -10 -6 0 -6 6 -1 12 -6
12 -12 0 -6 -6 -9 -14 -6 -8 3 -20 -1 -26 -8 -7 -8 -17 -12 -22 -9 -6 4 -5 -3
1 -15 10 -17 9 -20 -4 -15 -10 4 -15 0 -15 -10 0 -10 -8 -16 -22 -15 -13 0
-17 3 -10 6 10 4 10 8 1 19 -10 12 -9 13 5 8 14 -5 16 -2 12 20 -3 14 0 26 5
26 6 0 7 5 4 10 -4 6 -10 8 -15 5 -4 -3 -11 1 -13 7 -3 8 -6 6 -6 -4 -1 -10
-8 -18 -17 -18 -8 0 -12 -5 -9 -10 4 -6 11 -7 17 -4 7 4 8 2 4 -4 -4 -6 -14
-8 -23 -5 -11 4 -14 3 -9 -5 4 -7 2 -12 -3 -12 -6 0 -11 -12 -11 -27 0 -22 -2
-25 -10 -13 -8 12 -10 10 -10 -10 0 -20 -2 -22 -10 -10 -5 8 -10 11 -11 5 -1
-5 -3 -23 -5 -39 -4 -40 -11 -43 -35 -12 -12 15 -24 24 -28 21 -6 -7 -7 -12
-10 -39 0 -8 -8 -22 -17 -30 -9 -9 -11 -16 -4 -16 6 0 8 -5 5 -10 -4 -6 -10
-8 -15 -5 -13 8 -18 -18 -8 -38 5 -9 5 -17 1 -16 -20 3 -34 -2 -28 -11 3 -5 2
-10 -3 -10 -5 0 -8 -12 -8 -27 1 -16 -3 -34 -8 -41 -6 -9 -6 -16 1 -20 8 -5 8
-11 0 -22 -16 -20 -38 -24 -31 -5 4 8 1 15 -6 15 -7 0 -10 7 -7 15 5 12 2 12
-18 3 -24 -11 -34 -28 -16 -28 5 0 7 -17 4 -39 -3 -21 0 -48 6 -60 8 -14 8
-21 1 -21 -7 0 -8 -6 0 -19 7 -13 7 -22 0 -26 -6 -4 -4 -17 5 -35 9 -17 11
-31 5 -35 -5 -3 -7 -12 -3 -20 3 -10 -1 -15 -15 -15 -11 0 -22 -8 -24 -18 -7
-24 15 -65 27 -55 5 4 3 -1 -5 -11 -14 -18 -13 -19 2 -13 13 4 16 1 13 -13 -2
-11 1 -19 7 -17 6 1 13 -4 16 -12 3 -9 0 -11 -8 -6 -8 5 -11 4 -6 -3 4 -6 13
-9 21 -5 11 4 13 1 8 -13 -5 -13 -3 -15 7 -9 10 6 12 4 7 -8 -4 -12 -2 -14 10
-10 11 4 14 2 9 -5 -4 -7 -2 -12 4 -12 6 0 8 -4 5 -10 -3 -5 1 -10 9 -10 9 0
16 -4 16 -10 0 -5 7 -10 16 -10 12 0 15 -7 12 -25 -3 -14 -2 -25 2 -25 4 0 5
-11 2 -25 -2 -14 0 -25 7 -25 5 0 8 -6 5 -14 -3 -8 4 -24 15 -35 12 -12 21
-23 21 -26 0 -3 0 -9 0 -15 0 -5 8 -10 18 -11 9 0 12 -3 5 -5 -8 -4 -1 -17 19
-39 17 -19 35 -32 39 -29 5 3 9 -2 9 -10 0 -9 6 -16 13 -16 7 -1 4 -6 -6 -15
-11 -7 -26 -11 -35 -8 -12 5 -14 2 -9 -11 5 -13 1 -19 -13 -23 -12 -3 -17 -10
-13 -17 4 -6 -6 -3 -21 8 -16 10 -25 13 -22 7 4 -6 2 -11 -3 -11 -10 0 -15 14
-12 33 1 5 -3 6 -9 2 -6 -4 -17 -1 -25 5 -12 10 -15 10 -16 -1 0 -8 -4 -5 -9
6 -5 11 -9 14 -9 7 -1 -8 -6 -10 -13 -5 -23 14 -58 14 -58 1 0 -9 -3 -9 -10 2
-8 12 -10 12 -10 1 0 -11 -5 -9 -22 5 -19 15 -20 16 -9 2 8 -11 9 -18 3 -18
-6 0 -13 4 -17 10 -3 5 -15 0 -26 -11 -11 -11 -17 -24 -14 -29 4 -6 2 -10 -3
-10 -6 0 -8 -9 -5 -19 7 -29 -12 -55 -56 -77 -23 -10 -41 -22 -41 -26 0 -5 -7
-8 -16 -8 -10 0 -14 -5 -10 -16 3 -9 2 -12 -4 -9 -11 7 -62 -94 -54 -107 3 -4
1 -8 -3 -8 -13 0 -43 -56 -35 -65 4 -5 2 -5 -4 -2 -7 4 -27 1 -45 -7 -19 -7
-45 -12 -58 -10 -17 3 -32 -5 -52 -27 -16 -18 -26 -36 -22 -42 3 -6 1 -7 -4
-4 -6 4 -17 -1 -24 -10 -8 -10 -9 -14 -2 -10 6 4 15 3 18 -3 4 -6 3 -10 -2 -9
-20 4 -33 -2 -33 -15 0 -8 -5 -16 -12 -18 -7 -3 -8 -9 -2 -19 11 -18 13 -102
1 -90 -10 10 -49 2 -42 -9 3 -4 -2 -11 -11 -14 -9 -4 -14 -13 -10 -22 3 -9 2
-12 -5 -9 -11 8 -40 -25 -33 -37 3 -5 1 -8 -4 -8 -5 0 -9 -16 -9 -35 1 -21 6
-35 14 -35 7 0 13 -5 13 -11 0 -5 -6 -7 -12 -3 -8 4 -7 0 2 -12 28 -36 39 -61
30 -70 -5 -5 -5 -15 1 -24 9 -12 10 -11 5 5 l-6 20 17 -20 c10 -11 30 -26 45
-34 15 -8 25 -18 22 -23 -3 -4 0 -8 6 -8 6 0 8 -5 4 -11 -4 -7 -1 -10 6 -7 15
5 60 -33 60 -51 0 -7 4 -10 8 -7 4 2 8 -4 8 -14 0 -11 -2 -17 -4 -15 -3 2 -13
0 -23 -6 -12 -6 -19 -6 -19 0 0 12 -52 3 -60 -10 -4 -5 -5 -28 -3 -52 3 -37
-1 -48 -32 -81 -19 -21 -32 -42 -29 -47 3 -5 0 -9 -6 -9 -6 0 -9 -4 -5 -9 3
-5 1 -12 -3 -15 -10 -6 -9 -36 2 -54 4 -6 5 -12 1 -12 -3 0 1 -16 9 -35 10
-23 11 -35 4 -35 -6 0 -17 -8 -25 -17 -9 -11 -12 -12 -7 -3 3 8 -7 -1 -24 -20
-17 -19 -29 -41 -27 -47 2 -7 1 -13 -4 -13 -5 0 -8 -51 -8 -112 1 -118 -4
-167 -14 -165 -7 2 -44 -36 -85 -90 -14 -17 -24 -40 -22 -50 1 -10 -1 -24 -6
-31 -4 -7 -4 -18 1 -25 5 -7 8 -35 7 -64 -1 -36 2 -53 12 -57 8 -3 14 -12 14
-21 0 -8 4 -15 8 -15 5 0 8 -10 6 -22 -1 -13 -3 -23 -4 -23 -1 0 -2 -39 -4
-88 -2 -75 1 -92 18 -117 22 -30 102 -70 142 -70 49 0 63 -50 26 -92 -8 -10
-11 -18 -7 -18 4 0 -2 -8 -13 -19 -12 -10 -19 -21 -15 -25 3 -3 2 -6 -4 -6 -6
0 -14 -10 -18 -22 -4 -13 -8 -25 -10 -28 -10 -24 -14 -38 -17 -55 -2 -11 -9
-26 -15 -33 -7 -7 -13 -19 -13 -26 0 -7 -13 -33 -29 -58 -24 -38 -28 -52 -22
-80 19 -84 -23 -244 -77 -295 -34 -33 -36 -33 -61 -16 -57 36 -71 49 -82 76
-6 15 -22 30 -35 33 -13 3 -24 11 -24 16 0 6 -6 8 -14 5 -7 -3 -19 0 -25 6 -9
9 -14 9 -20 -2 -6 -9 -10 -10 -16 -2 -4 8 -14 4 -30 -11 -19 -18 -22 -30 -19
-62 2 -23 -1 -43 -7 -47 -8 -4 -3 -20 15 -45 14 -21 26 -46 26 -54 0 -17 25
-48 57 -72 10 -7 24 -21 31 -30 12 -15 8 -19 -30 -36 -50 -24 -83 -53 -158
-142 -30 -36 -70 -80 -90 -99 -19 -19 -35 -38 -35 -43 0 -4 -3 -8 -8 -8 -11 1
-35 -24 -31 -31 2 -4 -4 -13 -13 -20 -14 -12 -16 -12 -8 0 6 10 4 12 -4 7 -7
-5 -10 -14 -7 -22 3 -8 2 -13 -2 -13 -20 3 -32 -2 -29 -13 1 -7 -4 -12 -10
-11 -12 3 -17 -10 -14 -30 1 -5 -2 -6 -6 -4 -14 9 -46 -21 -37 -34 4 -8 3 -10
-4 -5 -7 4 -12 2 -12 -4 0 -6 -4 -8 -10 -5 -9 5 -14 -7 -12 -26 1 -4 -6 -6
-16 -5 -9 0 -17 -4 -17 -11 0 -7 -6 -18 -14 -25 -12 -11 -13 -10 -6 2 8 13 6
13 -8 1 -9 -7 -15 -17 -12 -21 3 -5 -4 -15 -15 -23 -11 -7 -17 -17 -12 -22 4
-5 1 -5 -6 -1 -14 9 -44 -23 -35 -37 2 -4 1 -7 -4 -6 -20 3 -34 -2 -28 -11 3
-5 -1 -10 -9 -10 -14 0 -20 -11 -17 -32 0 -4 -6 -5 -14 -2 -9 4 -15 0 -15 -10
0 -9 -7 -16 -15 -16 -14 0 -20 -12 -16 -33 1 -5 -3 -6 -7 -3 -12 7 -44 -28
-35 -39 5 -4 3 -5 -4 -2 -6 4 -20 -4 -31 -18 -11 -14 -25 -25 -31 -25 -6 0
-11 -7 -11 -15 0 -8 -5 -15 -11 -15 -5 0 -7 -5 -4 -10 4 -6 1 -9 -6 -8 -7 2
-18 -8 -26 -22 -7 -14 -13 -21 -13 -16 0 5 -24 -15 -52 -45 -29 -30 -51 -57
-50 -61 1 -5 -2 -7 -6 -5 -10 3 -78 -65 -74 -75 1 -5 -2 -8 -7 -8 -17 0 -374
-375 -615 -645 -20 -22 -51 -70 -70 -107 -29 -57 -33 -72 -26 -104 12 -50 19
-55 85 -55 71 0 86 9 215 145 52 54 122 127 155 161 33 35 134 141 225 235
366 383 747 776 880 908 63 63 169 162 235 219 66 58 132 116 146 129 14 12
32 37 39 54 7 16 20 30 29 30 9 0 26 7 39 15 23 17 19 20 144 -98 57 -54 107
-55 160 -5 52 49 45 82 -40 170 -31 32 -65 73 -75 91 -17 32 -17 32 5 36 13 1
44 22 69 45 25 22 56 49 69 58 14 10 23 28 24 45 1 23 7 28 35 34 35 7 51 23
51 51 0 11 25 30 69 53 71 37 101 75 101 124 0 21 4 22 58 25 16 0 54 18 85
38 82 55 103 57 136 16 12 -16 7 -24 -45 -77 -93 -92 -113 -125 -138 -221 -21
-83 -33 -102 -86 -140 -50 -37 -70 -65 -70 -104 0 -42 30 -111 75 -171 40 -53
43 -61 31 -80 -7 -11 -29 -49 -50 -85 -20 -36 -41 -72 -46 -80 -27 -44 -90
-152 -90 -155 0 -2 -37 -65 -81 -141 -84 -144 -191 -357 -386 -774 -25 -52
-60 -126 -78 -165 -18 -38 -36 -80 -39 -91 -11 -36 13 -69 74 -103 33 -17 99
-58 148 -90 75 -49 90 -64 96 -91 9 -48 7 -85 -5 -97 -14 -14 -14 -64 0 -91 6
-12 22 -24 34 -27 40 -11 67 -65 72 -146 5 -72 4 -73 -27 -100 l-32 -26 29
-48 c42 -67 80 -85 182 -85 l83 0 0 -74 c0 -126 -47 -207 -129 -222 -43 -8
-88 -31 -161 -85 -30 -22 -83 -48 -119 -59 -63 -20 -215 -108 -238 -139 -6 -9
-9 -20 -6 -24 3 -5 7 -27 9 -49 5 -55 17 -67 61 -62 20 3 40 7 44 10 5 3 9 -6
9 -19 0 -15 9 -28 24 -37 38 -20 174 -6 296 31 165 49 212 57 307 53 95 -4
138 7 146 36 3 11 20 28 38 39 58 35 70 45 91 79 26 43 21 108 -15 179 -30 61
-37 97 -38 203 -1 83 17 129 50 131 19 1 62 5 147 14 63 6 77 15 191 118 l42
38 -19 44 c-10 24 -17 45 -15 47 6 6 17 92 20 153 2 45 6 62 21 70 46 26 86
95 105 183 l11 52 41 -33 c46 -37 154 -100 176 -104 19 -2 64 -47 124 -122
l51 -63 55 6 c74 8 100 13 201 37 107 26 94 23 167 39 34 8 60 17 57 22 -3 4
2 8 11 8 22 0 81 44 133 99 l42 45 25 -25 c25 -25 25 -25 8 -59 -10 -21 -18
-59 -18 -93 -1 -49 2 -59 21 -72 13 -8 39 -46 59 -84 28 -53 51 -81 98 -118
73 -56 90 -75 117 -128 l20 -40 -20 -14 c-46 -31 -15 -94 75 -157 50 -34 66
-39 134 -45 59 -5 88 -13 120 -33 47 -30 55 -47 65 -126 4 -30 10 -73 13 -95
9 -68 6 -105 -10 -123 -26 -30 -35 -83 -22 -138 18 -82 36 -104 168 -208 34
-27 96 -119 128 -191 19 -41 69 -65 115 -55 43 10 74 36 74 62 0 19 1 19 34
-1 18 -12 45 -21 60 -21 25 0 66 30 66 49 0 5 9 7 20 4 55 -15 85 19 60 68 -9
15 -7 19 7 19 22 0 58 29 66 51 3 9 -5 38 -18 65 -37 79 -166 202 -318 304
-49 33 -88 67 -96 85 -22 45 -40 151 -40 235 -1 101 5 121 33 111 32 -11 88
-3 116 17 14 11 43 44 65 75 36 51 106 113 160 143 15 8 21 23 23 58 2 25 -1
46 -5 46 -4 0 -9 12 -10 27 0 15 -6 29 -12 31 -6 2 -9 8 -6 12 3 5 -14 33 -38
62 -51 64 -71 107 -69 156 2 51 21 92 57 125 28 26 35 27 96 23 258 -20 318
-19 304 4 -3 5 -1 11 5 15 5 3 10 19 10 35 0 36 10 61 21 54 5 -3 9 1 9 9 0 8
7 18 16 21 8 3 12 11 9 16 -4 6 -3 9 2 8 4 -2 46 34 92 79 46 46 79 83 75 83
-5 0 8 12 29 27 20 14 37 33 37 41 0 9 3 13 6 9 8 -8 34 18 34 34 0 7 3 10 6
7 5 -5 89 78 204 202 54 58 57 67 59 176 2 90 1 91 -31 125 -56 58 -216 173
-382 273 -61 37 -115 71 -122 77 -7 6 -22 11 -33 12 -11 1 -18 3 -16 5 2 3
-21 20 -53 38 -31 19 -64 38 -72 44 -8 6 -22 13 -30 17 -73 32 -176 126 -209
191 -21 40 -40 114 -46 177 -8 89 -16 129 -27 143 -6 6 -8 12 -5 12 4 0 -5 23
-19 51 l-26 51 21 22 c12 12 18 26 14 29 -3 4 -1 7 5 7 6 0 25 13 42 30 28 28
41 33 95 44 43 8 65 19 65 31 0 7 11 11 28 9 15 -2 43 -5 63 -7 20 -2 41 -7
48 -11 6 -4 11 -4 11 1 0 4 11 8 25 8 14 0 25 -3 25 -7 0 -5 5 -7 12 -5 6 1
17 -8 23 -20 7 -13 15 -20 18 -16 4 3 7 -3 7 -15 0 -20 11 -27 34 -23 5 1 4
-5 -3 -13 -11 -13 -10 -18 3 -31 9 -9 16 -20 16 -25 0 -5 10 -19 22 -30 17
-16 34 -20 70 -19 27 2 46 7 45 13 -1 6 3 10 10 9 7 -2 10 3 7 11 -4 11 0 13
18 9 18 -4 20 -3 8 6 -13 9 -12 11 4 11 15 0 16 3 6 15 -11 13 -10 14 4 9 9
-3 16 -1 16 5 0 6 6 10 13 8 7 -1 11 6 9 17 -2 11 1 15 7 11 6 -3 12 -1 12 4
1 6 2 14 3 19 17 70 25 320 12 341 -3 4 -7 28 -10 53 -7 60 -22 98 -38 98 -10
0 -10 2 0 9 10 6 9 11 -4 22 -16 12 -17 12 -10 -1 4 -8 0 -6 -8 4 -19 24 -20
36 -3 36 6 1 1 10 -12 21 -19 15 -26 17 -32 7 -6 -9 -9 -7 -9 8 0 25 -38 63
-65 65 -38 4 -66 -1 -61 -10 3 -5 -4 -11 -15 -14 -12 -3 -19 -10 -16 -14 3 -5
-3 -15 -15 -22 -15 -9 -18 -10 -13 0 5 8 4 10 -3 5 -7 -4 -12 -14 -12 -22 0
-8 -5 -14 -11 -14 -6 0 -9 -7 -5 -15 3 -8 2 -15 -2 -15 -12 0 -34 -69 -26 -81
5 -8 3 -9 -6 -4 -10 6 -12 4 -7 -8 4 -10 2 -17 -5 -17 -7 0 -7 -4 1 -14 8 -10
9 -16 1 -21 -5 -3 -10 -3 -10 1 0 3 -6 2 -13 -4 -7 -6 -18 -7 -26 -2 -8 4 -21
6 -28 3 -33 -13 -58 -7 -70 16 -16 28 -16 34 -3 26 6 -3 7 1 4 9 -3 9 -10 16
-16 16 -5 0 -6 4 -3 10 3 6 1 10 -4 10 -6 0 -11 5 -11 11 0 5 5 7 12 3 6 -4 3
4 -8 18 -10 14 -23 23 -28 20 -5 -3 -6 0 -2 6 4 7 -3 22 -16 34 -13 13 -24 29
-25 35 -4 18 -40 53 -55 53 -6 0 -8 3 -5 6 3 4 0 16 -8 28 -8 11 -15 35 -15
53 0 31 2 33 33 33 33 0 117 38 116 53 0 5 7 14 17 21 9 7 14 18 10 24 -4 7
-3 12 2 12 13 0 22 39 11 46 -6 3 -5 12 2 21 8 9 9 17 3 21 -5 4 -10 14 -12
22 -2 8 -19 28 -38 45 -35 31 -42 45 -24 45 18 0 80 45 80 58 0 6 5 12 10 12
18 0 10 57 -12 86 -13 15 -16 24 -9 19 10 -5 12 -4 7 3 -4 7 -14 12 -22 12 -8
0 -14 5 -14 10 0 6 -6 10 -12 9 -29 -3 -40 2 -34 16 3 8 0 14 -7 12 -7 -1 -11
4 -9 12 2 9 -3 11 -13 7 -9 -3 -13 -2 -10 3 3 5 1 12 -5 16 -7 4 -7 12 0 26 8
14 7 19 -1 19 -8 0 -9 4 0 13 6 8 8 17 4 21 -11 10 -11 46 0 46 5 0 4 7 -3 15
-10 12 -9 16 5 21 13 5 14 9 3 15 -9 6 -10 9 -1 9 7 0 10 6 7 14 -3 8 -1 17 5
20 6 4 7 15 2 29 -4 12 -6 28 -4 35 6 15 -38 87 -71 117 -35 33 -55 70 -46 85
5 9 4 20 -2 27 -6 7 -6 13 -1 13 5 0 6 27 3 61 -3 33 -2 63 2 65 4 3 4 13 -1
22 -5 9 -9 19 -9 22 -2 19 -16 39 -25 33 -6 -3 -7 -1 -3 5 4 7 4 18 -1 25 -4
6 -8 40 -8 74 0 61 -1 64 -41 100 -55 50 -94 82 -94 78 0 -2 -20 16 -44 41
-25 24 -49 44 -55 44 -6 0 -11 4 -11 9 0 12 -110 116 -120 114 -5 -2 -6 5 -3
14 4 11 3 14 -5 9 -7 -4 -12 -1 -12 8 0 8 -7 19 -17 24 -10 6 -14 16 -10 26 4
9 2 16 -4 16 -6 0 -6 6 0 19 6 10 8 20 6 22 -2 3 -6 17 -9 33 -6 35 -8 37 -71
71 -65 35 -74 44 -41 41 22 -3 25 0 22 21 -7 34 -110 135 -140 137 -13 0 -22
4 -19 9 4 7 -54 23 -69 19 -5 -1 -8 3 -8 9 0 5 -4 7 -10 4 -5 -3 -10 -2 -10 3
0 9 -55 26 -72 23 -5 0 -8 4 -8 10 0 6 -9 9 -20 6 -11 -3 -20 -1 -20 4 0 5
-12 12 -27 15 -16 4 -32 10 -38 14 -5 4 -26 13 -46 19 -27 9 -35 17 -35 34 1
29 27 47 76 52 22 2 46 8 53 12 6 4 20 8 31 8 11 1 32 16 48 34 22 24 28 40
26 72 -1 22 -5 42 -10 45 -4 3 -6 10 -3 15 4 5 -2 9 -11 9 -10 0 -14 3 -11 7
4 3 -1 12 -11 19 -20 16 -100 18 -136 4 -18 -6 -26 -6 -26 1 0 6 -5 7 -11 3
-6 -4 -28 -8 -48 -10 -20 -2 -49 -6 -66 -9 -16 -3 -39 -7 -50 -8 -11 -1 -24
-5 -30 -7 -9 -5 -45 -6 -82 -1 -9 1 -10 8 -3 25 5 13 7 26 4 29 -4 4 -7 22
-13 73 0 6 -15 26 -31 44 -37 41 -93 51 -121 21 -10 -10 -15 -22 -12 -25 4 -3
1 -6 -5 -6 -7 0 -12 -7 -12 -15 0 -17 -17 -50 -39 -78 -13 -16 -13 -17 5 -11
12 4 9 -1 -9 -13 -15 -11 -25 -22 -22 -24 2 -3 -9 -5 -26 -4 -19 0 -28 4 -24
12 2 7 -2 13 -9 13 -22 0 -39 27 -28 45 12 23 -10 87 -34 96 -11 4 -15 8 -11
8 5 1 0 16 -9 34 -30 57 -31 62 -25 82 4 11 6 31 6 45 0 14 7 31 15 38 13 12
13 13 -3 8 -11 -3 -16 -2 -12 4 3 6 13 10 20 10 9 0 12 6 9 15 -4 9 0 15 9 15
9 0 19 5 23 12 5 7 2 9 -7 4 -8 -4 -6 -1 3 7 10 8 15 17 11 20 -3 4 -2 7 3 7
5 0 10 10 11 21 1 12 7 27 13 33 8 8 9 6 4 -9 -4 -11 -4 -17 0 -13 5 4 9 23
11 43 1 28 -1 35 -13 30 -10 -4 -13 0 -9 14 3 14 1 18 -9 14 -17 -6 -18 1 -4
28 8 13 7 19 0 19 -6 0 -8 5 -5 10 4 6 0 24 -9 40 -10 20 -11 30 -3 30 8 0 8
3 -1 12 -7 7 -8 17 -1 30 7 12 6 18 -1 18 -7 0 -8 6 0 19 7 14 7 22 -1 27 -8
5 -8 8 0 14 8 5 5 14 -9 31 -15 16 -20 18 -16 7 4 -12 1 -15 -11 -11 -10 4
-14 2 -10 -4 5 -7 0 -9 -14 -6 -14 4 -19 12 -16 24 3 11 1 22 -4 25 -5 3 -5
13 1 23 5 10 6 21 3 25 -4 4 -9 19 -10 34 -2 15 -11 32 -19 38 -12 10 -12 13
-2 17 11 4 11 6 0 6 -7 1 -10 6 -7 11 3 6 2 10 -4 10 -6 0 -8 7 -5 15 4 10 0
15 -11 15 -9 0 -14 -4 -11 -8 3 -5 -8 -6 -25 -4 -23 3 -29 1 -29 -14 0 -17 -1
-16 -14 1 -8 11 -12 23 -10 27 3 5 -2 8 -11 8 -9 0 -14 4 -10 9 3 5 0 13 -6
17 -8 4 -9 3 -5 -4 9 -15 3 -15 -29 0 -16 7 -25 19 -25 35 0 12 -5 23 -11 23
-6 0 -9 6 -6 13 3 7 -3 13 -14 14 -10 1 -21 -7 -24 -18 -4 -11 -24 -28 -46
-39 l-39 -20 0 49 c0 27 -5 53 -12 57 -7 4 -8 3 -4 -4 4 -7 2 -12 -3 -12 -6 0
-11 -7 -11 -15 0 -8 -9 -19 -20 -25 -11 -6 -18 -15 -15 -21 4 -5 1 -9 -5 -9
-7 0 -10 -7 -6 -15 3 -8 1 -15 -4 -15 -6 0 -10 -7 -10 -15 0 -24 -67 -20 -80
5 -6 11 -7 20 -3 20 4 0 2 4 -6 9 -8 5 -15 30 -16 58 -3 50 -18 93 -33 93 -5
0 -22 -20 -40 -45z m-267 -1284 c-6 -5 -25 10 -25 20 0 5 6 4 14 -3 8 -7 12
-15 11 -17z m-811 -1299 c3 -5 -1 -9 -9 -9 -8 0 -12 4 -9 9 3 4 7 8 9 8 2 0 6
-4 9 -8z m2564 -656 c78 -50 84 -67 68 -189 -12 -91 84 -249 160 -263 31 -6
33 -8 28 -38 -3 -17 -7 -37 -10 -44 -10 -34 10 -73 46 -92 21 -11 50 -34 64
-51 25 -30 32 -32 84 -32 31 1 65 3 75 5 14 2 23 -9 38 -45 l19 -48 -52 -99
c-29 -55 -55 -100 -58 -100 -3 0 -35 44 -70 98 -35 53 -91 124 -125 157 -87
87 -96 101 -215 330 -89 173 -128 282 -155 438 -6 38 -6 38 17 26 13 -6 51
-30 86 -53z"/>
<path d="M3667 7733 c-10 -9 -9 -23 1 -23 5 0 9 7 9 15 0 17 -1 18 -10 8z"/>
</g>
</svg>
